<?xml version="1.0" encoding="UTF-8" standalone="no"?>
<!-- Created with Inkscape (http://www.inkscape.org/) -->

<svg
   xmlns:dc="http://purl.org/dc/elements/1.1/"
   xmlns:cc="http://creativecommons.org/ns#"
   xmlns:rdf="http://www.w3.org/1999/02/22-rdf-syntax-ns#"
   xmlns:svg="http://www.w3.org/2000/svg"
   xmlns="http://www.w3.org/2000/svg"
   xmlns:sodipodi="http://sodipodi.sourceforge.net/DTD/sodipodi-0.dtd"
   xmlns:inkscape="http://www.inkscape.org/namespaces/inkscape"
   width="744.09448819"
   height="1052.3622047"
   id="svg2"
   version="1.1"
   inkscape:version="0.48.2 r9819"
   sodipodi:docname="New document 1">
  <defs
     id="defs4" />
  <sodipodi:namedview
     id="base"
     pagecolor="#ffffff"
     bordercolor="#666666"
     borderopacity="1.0"
     inkscape:pageopacity="0.0"
     inkscape:pageshadow="2"
     inkscape:zoom="1.4"
     inkscape:cx="414.97025"
     inkscape:cy="409.80461"
     inkscape:document-units="px"
     inkscape:current-layer="layer1"
     showgrid="false"
     inkscape:window-width="1280"
     inkscape:window-height="962"
     inkscape:window-x="-8"
     inkscape:window-y="-8"
     inkscape:window-maximized="1" />
  <metadata
     id="metadata7">
    <rdf:RDF>
      <cc:Work
         rdf:about="">
        <dc:format>image/svg+xml</dc:format>
        <dc:type
           rdf:resource="http://purl.org/dc/dcmitype/StillImage" />
        <dc:title></dc:title>
      </cc:Work>
    </rdf:RDF>
  </metadata>
  <g
     inkscape:label="Layer 1"
     inkscape:groupmode="layer"
     id="layer1">
    <path
       inkscape:connector-curvature="0"
       d="m 229.4017,629.8524 45,-18.2875 39.375,23.9125 -42.1875,17.575 -42.1875,-23.2 z"
       style="fill:#000000;fill-opacity:1;fill-rule:evenodd;stroke:none"
       id="path2995" />
    <path
       inkscape:connector-curvature="0"
       d="m 229.4017,629.8524 45,-18.2875 39.375,23.9125 -42.1875,17.575 -42.1875,-23.2 z"
       style="fill:none;stroke:#000000;stroke-width:0.9375;stroke-linecap:round;stroke-linejoin:round;stroke-miterlimit:10;stroke-opacity:1;stroke-dasharray:none"
       id="path2997" />
    <path
       inkscape:connector-curvature="0"
       d="m 241.0017,630.5524 32,-13.3625 30.9375,17.575 -32,13.3625 -30.9375,-17.575 z"
       style="fill:#ffffff;fill-opacity:1;fill-rule:evenodd;stroke:none"
       id="path2999" />
    <path
       inkscape:connector-curvature="0"
       d="m 241.0017,630.5524 32,-13.3625 30.9375,17.575 -32,13.3625 -30.9375,-17.575 z"
       style="fill:none;stroke:#000000;stroke-width:0.9375;stroke-linecap:round;stroke-linejoin:round;stroke-miterlimit:10;stroke-opacity:1;stroke-dasharray:none"
       id="path3001" />
    <path
       inkscape:connector-curvature="0"
       d="m 229.4017,615.7899 45,-18.2875 39.375,23.9125 -42.1875,17.575 -42.1875,-23.2 z"
       style="fill:#800000;fill-opacity:1;fill-rule:evenodd;stroke:none"
       id="path3003" />
    <path
       inkscape:connector-curvature="0"
       d="m 229.4017,615.7899 45,-18.2875 39.375,23.9125 -42.1875,17.575 -42.1875,-23.2 z"
       style="fill:none;stroke:#800000;stroke-width:0.9375;stroke-linecap:round;stroke-linejoin:round;stroke-miterlimit:10;stroke-opacity:1;stroke-dasharray:none"
       id="path3005" />
    <path
       inkscape:connector-curvature="0"
       d="m 241.0017,616.4899 32,-13.3625 30.9375,17.575 -32,13.3625 -30.9375,-17.575 z"
       style="fill:#ffffff;fill-opacity:1;fill-rule:evenodd;stroke:none"
       id="path3007" />
    <path
       inkscape:connector-curvature="0"
       d="m 241.0017,616.4899 32,-13.3625 30.9375,17.575 -32,13.3625 -30.9375,-17.575 z"
       style="fill:none;stroke:#800000;stroke-width:0.9375;stroke-linecap:round;stroke-linejoin:round;stroke-miterlimit:10;stroke-opacity:1;stroke-dasharray:none"
       id="path3009" />
    <path
       inkscape:connector-curvature="0"
       d="m 230.5267,601.7274 45,-18.2875 39.375,23.9125 -42.1875,17.575 -42.1875,-23.2 z"
       style="fill:#cc0000;fill-opacity:1;fill-rule:evenodd;stroke:none"
       id="path3011" />
    <path
       inkscape:connector-curvature="0"
       d="m 230.5267,601.7274 45,-18.2875 39.375,23.9125 -42.1875,17.575 -42.1875,-23.2 z"
       style="fill:none;stroke:#cc0000;stroke-width:0.9375;stroke-linecap:round;stroke-linejoin:round;stroke-miterlimit:10;stroke-opacity:1;stroke-dasharray:none"
       id="path3013" />
    <path
       inkscape:connector-curvature="0"
       d="m 242.1267,602.4274 32,-13.3625 30.9375,17.575 -32,13.3625 -30.9375,-17.575 z"
       style="fill:#ffffff;fill-opacity:1;fill-rule:evenodd;stroke:none"
       id="path3015" />
    <path
       inkscape:connector-curvature="0"
       d="m 242.1267,602.4274 32,-13.3625 30.9375,17.575 -32,13.3625 -30.9375,-17.575 z"
       style="fill:none;stroke:#cc0000;stroke-width:0.9375;stroke-linecap:round;stroke-linejoin:round;stroke-miterlimit:10;stroke-opacity:1;stroke-dasharray:none"
       id="path3017" />
    <path
       inkscape:connector-curvature="0"
       d="m 231.6517,587.1024 45,-18.2875 39.375,23.9125 -42.1875,17.575 -42.1875,-23.2 z"
       style="fill:#205867;fill-opacity:1;fill-rule:evenodd;stroke:none"
       id="path3019" />
    <path
       inkscape:connector-curvature="0"
       d="m 231.6517,587.1024 45,-18.2875 39.375,23.9125 -42.1875,17.575 -42.1875,-23.2 z"
       style="fill:none;stroke:#205867;stroke-width:0.9375;stroke-linecap:round;stroke-linejoin:round;stroke-miterlimit:10;stroke-opacity:1;stroke-dasharray:none"
       id="path3021" />
    <path
       inkscape:connector-curvature="0"
       d="m 243.2517,587.8024 31.9875,-13.3625 30.9375,17.575 -31.9875,13.3625 -30.9375,-17.575 z"
       style="fill:#ffffff;fill-opacity:1;fill-rule:evenodd;stroke:none"
       id="path3023" />
    <path
       inkscape:connector-curvature="0"
       d="m 243.2517,587.8024 31.9875,-13.3625 30.9375,17.575 -31.9875,13.3625 -30.9375,-17.575 z"
       style="fill:none;stroke:#205867;stroke-width:0.9375;stroke-linecap:round;stroke-linejoin:round;stroke-miterlimit:10;stroke-opacity:1;stroke-dasharray:none"
       id="path3025" />
    <text
       id="text3027"
       x="328.06421"
       y="608.12738"
       style="font-size:15px">
      <tspan
         style="font-size:17.49959946px;font-variant:normal;font-weight:normal;writing-mode:lr-tb;fill:#000000;fill-opacity:1;fill-rule:nonzero;stroke:none;font-family:CALIBRI;-inkscape-font-specification:CALIBRI"
         x="328.06421 336.1048 341.96667 348.06787 356.45047 362.31235 371.01968 379.25702 383.27316 390.67316 394.62927 403.66977 412.05237 417.91428 426.62158 435.81598 441.67786 445.634 453.67459 462.38193 468.48309 476.38708 480.40323 487.80322 496.51053"
         y="608.12738"
         sodipodi:role="line"
         id="tspan3029">Strategic Patent Services</tspan>
    </text>
    <path
       inkscape:connector-curvature="0"
       d="m 328.0642,610.1024 175.2875,0"
       style="fill:none;stroke:#000000;stroke-width:1.14498746;stroke-linecap:butt;stroke-linejoin:miter;stroke-miterlimit:2;stroke-opacity:1;stroke-dasharray:none"
       id="path3031" />
    <text
       id="text3033"
       x="336.8017"
       y="623.12738"
       style="font-size:15px">
      <tspan
         style="font-size:12.50010014px;font-variant:normal;font-weight:normal;writing-mode:lr-tb;fill:#000000;fill-opacity:1;fill-rule:nonzero;stroke:none;font-family:CALIBRI;-inkscape-font-specification:CALIBRI"
         x="336.8017 343.25928 347.6171 354.20886 358.02353 364.24316 369.13205 374.02094 376.88977 383.48154 390.04895 396.03647 398.9053 401.7312 408.18881 414.17633 418.36349 424.5831 431.15051 435.33765 438.16357 441.31284 444.1817 447.05054 453.61792 458.50681 462.69397 467.05176 473.03928 477.22644 480.09528 486.68707"
         y="623.12738"
         sodipodi:role="line"
         id="tspan3035">Professional Patent Illustration</tspan>
    </text>
  </g>
</svg>
