<?xml version="1.0" encoding="UTF-8" standalone="no"?>
<!-- Created with Inkscape (http://www.inkscape.org/) -->

<svg
   xmlns:osb="http://www.openswatchbook.org/uri/2009/osb"
   xmlns:dc="http://purl.org/dc/elements/1.1/"
   xmlns:cc="http://creativecommons.org/ns#"
   xmlns:rdf="http://www.w3.org/1999/02/22-rdf-syntax-ns#"
   xmlns:svg="http://www.w3.org/2000/svg"
   xmlns="http://www.w3.org/2000/svg"
   xmlns:sodipodi="http://sodipodi.sourceforge.net/DTD/sodipodi-0.dtd"
   xmlns:inkscape="http://www.inkscape.org/namespaces/inkscape"
   width="1600px"
   height="1200px"
   id="svg3372"
   version="1.1"
   inkscape:version="0.48.2 r9819"
   sodipodi:docname="SPS-Logo2.svg"
   inkscape:export-filename="C:\Users\Tim\Documents\GitHub\tc349\projects\final\images\SPS-Logo.png"
   inkscape:export-xdpi="90"
   inkscape:export-ydpi="90">
  <defs
     id="defs3374">
    <linearGradient
       id="linearGradient5253"
       osb:paint="solid">
      <stop
         style="stop-color:#92e346;stop-opacity:1;"
         offset="0"
         id="stop5255" />
    </linearGradient>
    <inkscape:path-effect
       effect="skeletal"
       id="path-effect3287"
       is_visible="true"
       pattern="m 48.317667,-4.6534667 c 0,-2.76 2.24,-5 5,-5 2.76,0 5,2.24 5,5 0,2.76 -2.24,5.00000004 -5,5.00000004 -2.76,0 -5,-2.24000004 -5,-5.00000004 z"
       copytype="single_stretched"
       prop_scale="1"
       scale_y_rel="false"
       spacing="0"
       normal_offset="0"
       tang_offset="0"
       prop_units="false"
       vertical_pattern="false"
       fuse_tolerance="0" />
    <inkscape:path-effect
       effect="skeletal"
       id="path-effect3287-7"
       is_visible="true"
       pattern="m 50.685447,-7.1106999 c 0,-2.76 2.24,-5.0000001 5,-5.0000001 2.76,0 5,2.2400001 5,5.0000001 0,2.7600001 -2.24,5 -5,5 -2.76,0 -5,-2.2399999 -5,-5 z"
       copytype="single_stretched"
       prop_scale="1"
       scale_y_rel="false"
       spacing="0"
       normal_offset="0"
       tang_offset="0"
       prop_units="false"
       vertical_pattern="false"
       fuse_tolerance="0" />
    <inkscape:path-effect
       effect="skeletal"
       id="path-effect3031-4"
       is_visible="true"
       pattern="m -66.34836,247.06037 c 0,-2.76 2.23999,-5 4.99999,-5 2.76,0 5,2.24 5,5 0,2.76 -2.24,5 -5,5 -2.76,0 -4.99999,-2.24 -4.99999,-5 z"
       copytype="single_stretched"
       prop_scale="1"
       scale_y_rel="false"
       spacing="0"
       normal_offset="0"
       tang_offset="0"
       prop_units="false"
       vertical_pattern="false"
       fuse_tolerance="0" />
    <inkscape:path-effect
       effect="skeletal"
       id="path-effect3031-1"
       is_visible="true"
       pattern="m -98.658,232.71035 c 0,-2.76 2.24,-5 5,-5 2.76,0 5,2.24 5,5 0,2.76 -2.24,5 -5,5 -2.76,0 -5,-2.24 -5,-5 z"
       copytype="single_stretched"
       prop_scale="1"
       scale_y_rel="false"
       spacing="0"
       normal_offset="0"
       tang_offset="0"
       prop_units="false"
       vertical_pattern="false"
       fuse_tolerance="0" />
    <inkscape:path-effect
       effect="skeletal"
       id="path-effect3031"
       is_visible="true"
       pattern="m -80.82321,214.87555 c 0,-2.76 2.24,-5 5,-5 2.76,0 5,2.24 5,5 0,2.76 -2.24,5 -5,5 -2.76,0 -5,-2.24 -5,-5 z"
       copytype="single_stretched"
       prop_scale="1"
       scale_y_rel="false"
       spacing="0"
       normal_offset="0"
       tang_offset="0"
       prop_units="false"
       vertical_pattern="false"
       fuse_tolerance="0" />
    <inkscape:path-effect
       effect="skeletal"
       id="path-effect3031-4-8"
       is_visible="true"
       pattern="m -116.34837,187.8937 c 0,-2.76 2.23999,-5 4.99999,-5 2.76,0 5,2.24 5,5 0,2.76 -2.24,5 -5,5 -2.76,0 -4.99999,-2.24 -4.99999,-5 z"
       copytype="single_stretched"
       prop_scale="1"
       scale_y_rel="false"
       spacing="0"
       normal_offset="0"
       tang_offset="0"
       prop_units="false"
       vertical_pattern="false"
       fuse_tolerance="0" />
    <inkscape:path-effect
       effect="skeletal"
       id="path-effect3031-1-8"
       is_visible="true"
       pattern="m -148.65801,173.54368 c 0,-2.76 2.24,-5 5,-5 2.76,0 5,2.24 5,5 0,2.76 -2.24,5 -5,5 -2.76,0 -5,-2.24 -5,-5 z"
       copytype="single_stretched"
       prop_scale="1"
       scale_y_rel="false"
       spacing="0"
       normal_offset="0"
       tang_offset="0"
       prop_units="false"
       vertical_pattern="false"
       fuse_tolerance="0" />
    <inkscape:path-effect
       effect="skeletal"
       id="path-effect3031-2"
       is_visible="true"
       pattern="m -130.82322,155.70888 c 0,-2.76 2.24,-5 5,-5 2.76,0 5,2.24 5,5 0,2.76 -2.24,5 -5,5 -2.76,0 -5,-2.24 -5,-5 z"
       copytype="single_stretched"
       prop_scale="1"
       scale_y_rel="false"
       spacing="0"
       normal_offset="0"
       tang_offset="0"
       prop_units="false"
       vertical_pattern="false"
       fuse_tolerance="0" />
  </defs>
  <sodipodi:namedview
     id="base"
     pagecolor="#ffffff"
     bordercolor="#666666"
     borderopacity="1.0"
     inkscape:pageopacity="0.0"
     inkscape:pageshadow="2"
     inkscape:zoom="2.4"
     inkscape:cx="255.84312"
     inkscape:cy="600"
     inkscape:current-layer="layer1"
     inkscape:document-units="px"
     showgrid="false"
     inkscape:window-width="1680"
     inkscape:window-height="988"
     inkscape:window-x="-8"
     inkscape:window-y="-8"
     inkscape:window-maximized="1" />
  <metadata
     id="metadata3377">
    <rdf:RDF>
      <cc:Work
         rdf:about="">
        <dc:format>image/svg+xml</dc:format>
        <dc:type
           rdf:resource="http://purl.org/dc/dcmitype/StillImage" />
        <dc:title></dc:title>
      </cc:Work>
    </rdf:RDF>
  </metadata>
  <g
     id="layer1"
     inkscape:label="Layer 1"
     inkscape:groupmode="layer">
    <flowRoot
       xml:space="preserve"
       id="flowRoot3437"
       style="font-size:170px;font-style:normal;font-variant:normal;font-weight:normal;font-stretch:normal;line-height:75.99999905%;letter-spacing:0px;word-spacing:-7.5px;fill:#000000;fill-opacity:1;stroke:none;font-family:Gentium Basic;-inkscape-font-specification:Gentium Basic"
       transform="matrix(0.36242905,0,0,0.36242905,52.205097,412.05381)"><flowRegion
         id="flowRegion3439"><rect
           id="rect3441"
           width="1346.6666"
           height="305"
           x="251.66667"
           y="411.66669"
           style="font-size:170px;font-style:normal;font-variant:normal;font-weight:normal;font-stretch:normal;line-height:75.99999905%;word-spacing:-7.5px;font-family:Gentium Basic;-inkscape-font-specification:Gentium Basic" /></flowRegion><flowPara
         style="word-spacing:-7.5px;fill:#4d4d4d"
         id="flowPara3461">Strategic <flowSpan
   style="word-spacing:-7.5px;fill:#333333"
   id="flowSpan3483">Patent</flowSpan></flowPara><flowPara
         style="word-spacing:-7.5px;fill:#1a1a1a"
         id="flowPara3475">Services </flowPara></flowRoot>    <path
       style="fill:#000000;fill-rule:evenodd;stroke:none"
       d="m 54.795523,557.93728 c 0,-0.92475 7.549773,-1.76618 20.988181,-2.18482 13.438409,-0.41864 32.768746,-0.41118 55.987636,0.0196 0.2129,23.0727 0.33479,50.4085 0.33479,79.47582 -29.06732,0 -56.403114,-0.12189 -79.475813,-0.33479 -0.430794,-23.21889 -0.438253,-42.54923 -0.01961,-55.98764 0.418638,-13.43841 1.260076,-20.98818 2.184821,-20.98818 0.924745,0 1.766183,7.49991 2.184821,20.28899 0.418638,12.78909 0.411179,30.86405 -0.01962,52.35641 20.950239,-0.2129 44.720121,-0.33479 70.145401,-0.33479 0,-25.42529 0.12189,-49.19516 0.33479,-70.1454 -21.49236,0.43079 -39.567321,0.43825 -52.356405,0.0196 -12.789084,-0.41864 -20.288992,-1.26007 -20.288992,-2.18482 z"
       id="path3029"
       inkscape:path-effect="#path-effect3031-2"
       inkscape:original-d="m 54.795523,557.93728 74.810607,0 0,74.81061 -74.810607,0 z"
       inkscape:connector-curvature="0" />
    <path
       style="fill:#666666;fill-opacity:1;fill-rule:evenodd;stroke:none"
       d="m 48.124365,564.60845 c 0,-0.92475 7.549774,-1.76618 20.988184,-2.18482 13.438409,-0.41864 32.768751,-0.41118 55.987641,0.0196 0.2129,23.0727 0.33479,50.4085 0.33479,79.47582 -29.067325,0 -56.40312,-0.12189 -79.475821,-0.33479 -0.430794,-23.21889 -0.438253,-42.54923 -0.01962,-55.98764 0.418638,-13.43841 1.260076,-20.98818 2.184821,-20.98818 0.924745,0 1.766183,7.49991 2.184821,20.28899 0.418638,12.78909 0.411179,30.86405 -0.01961,52.35641 20.950242,-0.2129 44.720121,-0.33479 70.145409,-0.33479 0,-25.42529 0.12189,-49.19516 0.33479,-70.1454 -21.49236,0.43079 -39.567325,0.43825 -52.35641,0.0196 -12.789086,-0.41864 -20.288995,-1.26007 -20.288995,-2.18482 z"
       id="path3029-7"
       inkscape:path-effect="#path-effect3031-1-8"
       inkscape:original-d="m 48.124365,564.60845 74.810615,0 0,74.81061 -74.810615,0 z"
       inkscape:connector-curvature="0" />
    <path
       style="fill:#aa0000;fill-rule:evenodd;stroke:none"
       d="m 60.209882,569.9761 c 0,-0.92475 7.549763,-1.76618 20.988167,-2.18482 13.438404,-0.41864 32.768741,-0.41118 55.987651,0.0196 0.2129,23.07265 0.33479,50.40839 0.33479,79.47568 0,5e-5 0,1.1e-4 0,1.6e-4 -29.06732,0 -56.403115,-0.12189 -79.475813,-0.33479 -0.430795,-23.2189 -0.438253,-42.54924 -0.01962,-55.98765 0.418638,-13.43842 1.260075,-20.98819 2.18482,-20.98819 0.924745,0 1.766182,7.49991 2.18482,20.289 0.418638,12.78909 0.41118,30.86405 -0.01962,52.35642 20.95024,-0.2129 44.720113,-0.33479 70.145403,-0.33479 0,-5e-5 0,-9e-5 0,-1.4e-4 0,-25.42526 0.12189,-49.19509 0.33479,-70.14528 -21.49238,0.43079 -39.56734,0.43825 -52.35642,0.0196 -12.789079,-0.41864 -20.288978,-1.26007 -20.288978,-2.18482 z"
       id="path3029-0"
       inkscape:path-effect="#path-effect3031-4-8"
       inkscape:original-d="m 60.209882,569.9761 74.810608,0 0,74.81063 -74.810608,0 z"
       inkscape:connector-curvature="0" />
  </g>
</svg>
